# xmcd CD database file
#
# Track frame offsets:
#	150
#	20591
#	38459
#	50619
#	66528
#	85388
#	99233
#	118524
#	136549
#	148226
#	165127
#	186652
#
# Disc length: 2645 seconds
#
# Revision: 0
# Processed by: cddbd v1.5.1PL0 Copyright (c) Steve Scherf et al.
# Submitted via: CDex 1.51
#
DISCID=a00a530c
DTITLE=Bowie Martin - Instruments I Love To Play
DYEAR=2003
DGENRE=Country
TTITLE0=Sleepwalk
TTITLE1=Storms Never Last
TTITLE2=Panhandle Rag
TTITLE3=Last Date
TTITLE4=Danny Boy
TTITLE5=Bud's Bounce
TTITLE6=Crazy
TTITLE7=Spanish Eyes
TTITLE8=San Antone Rose
TTITLE9=Sweet Memories
TTITLE10=Hank Williams Medley
TTITLE11=Steel Guitar Rag
EXTD=YEAR: 2003
EXTT0=
EXTT1=
EXTT2=
EXTT3=
EXTT4=
EXTT5=
EXTT6=
EXTT7=
EXTT8=
EXTT9=
EXTT10=
EXTT11=
PLAYORDER=
